<svg xmlns="http://www.w3.org/2000/svg" viewBox="0 0 120 120"><circle cx="60" cy="60" r="53" fill="none" stroke="#c9952f" stroke-width="2.5"/><g fill="none" stroke="#0d4a63" stroke-width="3.5" stroke-linecap="round" stroke-linejoin="round"><path d="M38 84 L38 64 Q38 46 56 46 Q70 46 74 56 Q78 66 68 70"/><path d="M38 84 Q38 90 44 90 L70 90 Q78 90 78 82 L78 74 Q78 70 74 70 L60 70 Q52 70 52 62"/><path d="M52 62 Q52 50 62 50"/><path d="M74 70 Q82 70 82 78 L82 84"/><path d="M82 84 L78 84"/><path d="M82 84 Q82 88 86 88 L86 84"/></g><path d="M44 62 Q49 50 65 51" fill="none" stroke="#c9952f" stroke-width="3" stroke-linecap="round" stroke-linejoin="round"/></svg>