<svg xmlns="http://www.w3.org/2000/svg" viewBox="0 0 120 120"><circle cx="60" cy="60" r="53" fill="none" stroke="#c9952f" stroke-width="2.5"/><path d="M38 80 C30 70 32 56 44 50 C56 44 58 36 52 28 C58 32 64 38 60 48 C56 58 64 64 74 62 C86 60 92 68 88 78 C84 88 72 92 60 88 C50 85 44 87 38 80 Z" fill="none" stroke="#0d4a63" stroke-width="3.5" stroke-linecap="round" stroke-linejoin="round"/><path d="M48 64 C58 60 70 62 78 70" fill="none" stroke="#0d4a63" stroke-width="3.5" stroke-linecap="round" stroke-linejoin="round"/><path d="M44 42 L47 50 L55 53 L47 56 L44 64 L41 56 L33 53 L41 50 Z" fill="#c9952f" stroke="#c9952f" stroke-width="2" stroke-linejoin="round"/></svg>